<svg width="25" height="26" viewBox="0 0 25 26" fill="none" xmlns="http://www.w3.org/2000/svg">
<path fill-rule="evenodd" clip-rule="evenodd" d="M1.6667 0.998535C0.746243 0.998535 6.10352e-05 1.74472 6.10352e-05 2.66518V24.3315C6.10352e-05 25.252 0.746243 25.9982 1.6667 25.9982H23.3331C24.2535 25.9982 24.9997 25.252 24.9997 24.3315V2.66518C24.9997 1.74472 24.2535 0.998535 23.3331 0.998535H1.6667ZM23.3331 3.33184H4.00001V21.9982H23.3331V3.33184Z" fill="#3F3F3F"/>
<path d="M21.3377 0.998535H3.66212C1.64303 0.998535 6.10352e-05 2.6415 6.10352e-05 4.66059V22.3361C6.10352e-05 24.3552 1.64303 25.9982 3.66212 25.9982H21.3377C23.3567 25.9982 24.9997 24.3552 24.9997 22.3361V4.66059C24.9997 2.6415 23.3567 0.998535 21.3377 0.998535ZM12.5487 20.0412C8.91393 20.0412 5.95701 17.0843 5.95701 13.4495C5.95701 9.81475 8.91393 6.85783 12.5487 6.85783C16.1835 6.85783 19.1404 9.81475 19.1404 13.4495C19.1404 17.0843 16.1835 20.0412 12.5487 20.0412ZM19.8728 8.32265C18.6613 8.32265 17.6756 7.33695 17.6756 6.12542C17.6756 4.91389 18.6613 3.92818 19.8728 3.92818C21.0844 3.92818 22.0701 4.91389 22.0701 6.12542C22.0701 7.33695 21.0844 8.32265 19.8728 8.32265Z" fill="#3F3F3F"/>
<path d="M19.8728 5.39301C19.4687 5.39301 19.1404 5.72126 19.1404 6.12542C19.1404 6.52958 19.4687 6.85783 19.8728 6.85783C20.277 6.85783 20.6052 6.52958 20.6052 6.12542C20.6052 5.72126 20.277 5.39301 19.8728 5.39301Z" fill="#3F3F3F"/>
<path d="M12.5487 8.32265C9.72206 8.32265 7.42183 10.6229 7.42183 13.4495C7.42183 16.2762 9.72206 18.5764 12.5487 18.5764C15.3754 18.5764 17.6756 16.2762 17.6756 13.4495C17.6756 10.6229 15.3754 8.32265 12.5487 8.32265Z" fill="#3F3F3F"/>
<defs>
<rect width="24.9997" height="24.9997" fill="white" transform="translate(6.10352e-05 0.998535)"/>
</defs>
</svg>
