<svg width="50" height="50" viewBox="0 0 50 50" fill="none" xmlns="http://www.w3.org/2000/svg">
<g clip-path="url(#clip0)">
<path d="M28.7358 37.4799C33.6329 37.2647 37.4941 33.235 37.5 28.3332C37.5 27.873 37.1269 27.4999 36.6667 27.4999C31.7417 27.5058 27.7016 31.4025 27.5175 36.3241C27.0799 36.8448 26.4914 37.2169 25.8333 37.3891V28.2566C26.9577 28.0713 27.9833 27.5024 28.7358 26.6466C33.6329 26.4314 37.4941 22.4017 37.5 17.4999C37.5 17.0396 37.1269 16.6665 36.6667 16.6665C31.7417 16.6725 27.7016 20.5691 27.5175 25.4907C27.0799 26.0115 26.4914 26.3835 25.8333 26.5557V17.6524C30.483 12.7422 30.3747 5.02179 25.5892 0.243955C25.2637 -0.081359 24.7362 -0.081359 24.4108 0.243955C19.6253 5.02179 19.5169 12.7422 24.1667 17.6524V26.5557C23.5086 26.3835 22.9202 26.0115 22.4825 25.4907C22.2984 20.5691 18.2583 16.6725 13.3333 16.6665C12.8731 16.6665 12.4999 17.0396 12.4999 17.4999C12.5059 22.4017 16.367 26.4314 21.2641 26.6466C22.0166 27.5024 23.0423 28.0713 24.1667 28.2566V37.3891C23.5086 37.2169 22.9202 36.8448 22.4825 36.3241C22.2984 31.4025 18.2583 27.5058 13.3333 27.4999C12.8731 27.4999 12.4999 27.873 12.4999 28.3332C12.5059 33.235 16.367 37.2647 21.2641 37.4799C22.0166 38.3358 23.0423 38.9046 24.1667 39.09V48.2225C23.5086 48.0503 22.9202 47.6782 22.4825 47.1575C22.2984 42.2359 18.2583 38.3392 13.3333 38.3333C12.8731 38.3333 12.4999 38.7064 12.4999 39.1666C12.5059 44.0684 16.367 48.0981 21.2641 48.3133C23.0835 50.3766 26.231 50.5743 28.2943 48.7549C28.4505 48.6171 28.598 48.4696 28.7358 48.3133C33.6329 48.0981 37.4941 44.0684 37.5 39.1666C37.5 38.7064 37.1269 38.3333 36.6667 38.3333C31.7417 38.3392 27.7016 42.2359 27.5175 47.1575C27.0799 47.6782 26.4914 48.0503 25.8333 48.2225V39.09C26.9577 38.9046 27.9833 38.3358 28.7358 37.4799ZM35.7817 29.2182C35.3678 32.6571 32.6572 35.3677 29.2183 35.7816C29.6322 32.3427 32.3428 29.6321 35.7817 29.2182ZM35.7817 18.3849C35.3678 21.8237 32.6572 24.5344 29.2183 24.9482C29.6322 21.5094 32.3428 18.7987 35.7817 18.3849ZM14.2183 18.3849C17.6571 18.7987 20.3678 21.5094 20.7816 24.9482C17.3428 24.5345 14.6321 21.8238 14.2183 18.3849ZM14.2183 29.2182C17.6571 29.6321 20.3678 32.3427 20.7816 35.7816C17.3428 35.3679 14.6321 32.6572 14.2183 29.2182ZM14.2183 40.0516C17.6571 40.4655 20.3678 43.1761 20.7816 46.615C17.3428 46.2012 14.6321 43.4906 14.2183 40.0516ZM35.7817 40.0516C35.3678 43.4905 32.6572 46.2011 29.2183 46.615C29.6322 43.1761 32.3428 40.4655 35.7817 40.0516ZM25 16.1057C21.5537 12.058 21.5537 6.10763 25 2.0598C28.4463 6.10763 28.4463 12.058 25 16.1057Z" fill="#73877B"/>
</g>
<defs>
<clipPath id="clip0">
<rect width="50" height="50" fill="white"/>
</clipPath>
</defs>
</svg>