<svg width="50" height="50" viewBox="0 0 50 50" fill="none" xmlns="http://www.w3.org/2000/svg">
<g clip-path="url(#clip0)">
<path d="M47.2299 5.08348C47.0552 4.78226 46.7334 4.59694 46.3853 4.59694H41.6799L39.3209 0.493673C39.1467 0.190693 38.8239 0.00390625 38.4745 0.00390625H33.1989C32.85 0.00390625 32.5276 0.19001 32.3532 0.492209L30.1851 4.24816L28.4807 3.3527C28.5004 3.21561 28.5112 3.07559 28.5112 2.93314C28.5112 1.31796 27.1971 0.00390625 25.5819 0.00390625C23.9668 0.00390625 22.6527 1.31796 22.6527 2.93314C22.6527 4.54831 23.9668 5.86237 25.5819 5.86237C26.3493 5.86237 27.0484 5.56534 27.5712 5.08075L29.8599 6.2832L32.356 10.5536C32.5311 10.8532 32.852 11.0373 33.1989 11.0373H37.8995L39.9655 14.7057L38.0005 17.6648C37.7755 17.6094 37.5407 17.5793 37.2989 17.5793C35.6837 17.5793 34.3696 18.8933 34.3696 20.5085C34.3696 22.1237 35.6837 23.4377 37.2989 23.4377C37.7433 23.4377 38.1726 23.3391 38.562 23.1525L40.5133 25.1038C40.3268 25.4933 40.2281 25.9225 40.2281 26.367C40.2281 27.9822 41.5421 29.2962 43.1573 29.2962C44.7725 29.2962 46.0865 27.9822 46.0865 26.367C46.0865 24.7518 44.7725 23.4377 43.1573 23.4377C42.7129 23.4377 42.2836 23.5364 41.8941 23.723L39.9429 21.7717C40.1294 21.3822 40.2281 20.953 40.2281 20.5085C40.2281 19.8442 40.0055 19.2311 39.6313 18.7391L41.6334 15.7241H46.3853C46.736 15.7241 47.0597 15.536 47.2335 15.2315L49.8718 10.6063C50.0441 10.3042 50.0428 9.93331 49.8683 9.63258L47.2299 5.08348ZM25.5819 3.90955C25.0435 3.90955 24.6055 3.47153 24.6055 2.93314C24.6055 2.39474 25.0435 1.95673 25.5819 1.95673C26.1203 1.95673 26.5583 2.39474 26.5583 2.93314C26.5583 3.47153 26.1203 3.90955 25.5819 3.90955ZM31.6908 5.54591L33.7626 1.95673H37.9095L39.9831 5.56358L37.9156 9.08452H33.7592L31.6908 5.54591ZM36.3224 20.5085C36.3224 19.9701 36.7605 19.5321 37.2989 19.5321C37.8373 19.5321 38.2753 19.9701 38.2753 20.5085C38.2753 21.0476 37.8379 21.4849 37.2989 21.4849C36.7605 21.4849 36.3224 21.0469 36.3224 20.5085ZM44.1337 26.367C44.1337 26.9054 43.6957 27.3434 43.1573 27.3434C42.6189 27.3434 42.1809 26.9054 42.1809 26.367C42.1809 25.8279 42.6182 25.3906 43.1573 25.3906C43.6957 25.3906 44.1337 25.8286 44.1337 26.367ZM45.8181 13.7713H41.6805L39.5987 10.0747L41.6687 6.54585H45.8228L47.8972 10.1264L45.8181 13.7713Z" fill="#73877B"/>
<path d="M18.8447 20.1179C18.5239 20.1179 18.2237 20.2754 18.0413 20.5393C17.4021 21.4646 15.9155 23.7514 15.9155 25C15.9155 26.6151 17.2295 27.9292 18.8447 27.9292C20.4599 27.9292 21.7739 26.6151 21.7739 25C21.7739 23.7514 20.2872 21.4646 19.6481 20.5393C19.4657 20.2754 19.1654 20.1179 18.8447 20.1179ZM18.8447 25.9764C18.3063 25.9764 17.8683 25.5384 17.8683 25.0011C17.8762 24.7026 18.2824 23.8516 18.8449 22.9039C19.4069 23.8505 19.8128 24.7012 19.8211 25.0009C19.8207 25.5389 19.3829 25.9764 18.8447 25.9764Z" fill="#73877B"/>
<path d="M18.8447 49.996C19.384 49.996 19.8211 49.5589 19.8211 49.0196C19.8211 48.4804 19.384 48.0432 18.8447 48.0432C18.3054 48.0432 17.8683 48.4804 17.8683 49.0196C17.8683 49.5589 18.3054 49.996 18.8447 49.996Z" fill="#73877B"/>
<path d="M25.9725 22.8066V14.2596H26.9489C27.4882 14.2596 27.9253 13.8223 27.9253 13.2832V9.37753C27.9253 8.83836 27.4882 8.40112 26.9489 8.40112H10.7405C10.2012 8.40112 9.7641 8.83836 9.7641 9.37753V13.2832C9.7641 13.8223 10.2012 14.2596 10.7405 14.2596H11.7169V22.8066L0.463697 44.2441C0.160327 44.8088 0 45.4472 0 46.0905C0 48.2441 1.75207 49.9962 3.90564 49.9962H14.4509C14.9901 49.9962 15.4273 49.559 15.4273 49.0198C15.4273 48.4806 14.9901 48.0434 14.4509 48.0434H3.90564C2.82885 48.0434 1.95282 47.1673 1.95282 46.0905C1.95282 45.7631 2.03103 45.4518 2.1854 45.1654C2.18716 45.1623 8.158 33.7878 8.158 33.7878H29.5313C29.5313 33.7878 35.5022 45.1623 35.5039 45.1654C35.6583 45.4518 35.7365 45.763 35.7365 46.0905C35.7365 47.1673 34.8605 48.0434 33.7837 48.0434H23.2386C22.6993 48.0434 22.2621 48.4806 22.2621 49.0198C22.2621 49.559 22.6993 49.9962 23.2386 49.9962H33.7838C35.9374 49.9962 37.6894 48.2441 37.6894 46.0905C37.6894 45.4472 37.5291 44.8088 37.2257 44.2441L25.9725 22.8066ZM11.7169 10.3539H25.9725V12.3068H11.7169V10.3539ZM9.18314 31.835L13.5578 23.501C13.6313 23.361 13.6697 23.2054 13.6697 23.0473V14.2596H24.0197V23.0473C24.0197 23.2054 24.0581 23.3611 24.1316 23.501L28.5063 31.835H9.18314Z" fill="#73877B"/>
</g>
<defs>
<clipPath id="clip0">
<rect width="50" height="50" fill="white"/>
</clipPath>
</defs>
</svg>
