<svg width="50" height="50" viewBox="0 0 50 50" fill="none" xmlns="http://www.w3.org/2000/svg">
<g clip-path="url(#clip0)">
<path d="M47.4989 48.515H40.1256L41.7834 43.5972C42.461 41.587 42.6747 39.4124 42.4014 37.3088C42.1283 35.205 41.3661 33.1573 40.1973 31.3869L39.9111 30.9533L41.1191 27.3693C42.0699 24.5486 41.6747 21.5062 40.0348 19.022L39.911 18.8344L41.7832 13.2801C42.4608 11.27 42.6745 9.09536 42.4012 6.99174C42.128 4.88811 41.3658 2.84035 40.1971 1.06994L39.7112 0.333605C39.5547 0.0966896 39.2762 -0.0303617 38.9958 0.00625954C38.7143 0.0427831 38.4784 0.236534 38.3876 0.50548L36.3996 6.40326C36.0837 7.34076 35.8667 8.31371 35.7549 9.29516C35.7084 9.70268 36.0011 10.0707 36.4088 10.117C36.8146 10.1643 37.1843 9.87095 37.2307 9.46323C37.3306 8.58588 37.5246 7.71586 37.8072 6.87758L39.3027 2.44064C41.1546 5.58206 41.5497 9.32329 40.3757 12.8058L38.8804 17.242C37.9568 15.6688 37.3808 13.8971 37.207 12.0795C37.1679 11.6712 36.8045 11.3718 36.397 11.411C35.9888 11.4501 35.6895 11.8127 35.7285 12.2209C35.9462 14.4959 36.7268 16.7062 37.9857 18.6134L38.2719 19.0471L37.0639 22.6311C36.1131 25.4517 36.5083 28.4942 38.1481 30.9784C38.1482 30.9784 38.1482 30.9784 38.1482 30.9784L38.272 31.166L36.3998 36.7202C35.7223 38.7303 35.5086 40.905 35.7819 43.0086C36.0341 44.9499 36.7035 46.8431 37.7236 48.515H30.9218L32.5795 43.5972C33.2572 41.587 33.4708 39.4124 33.1976 37.3088C32.9243 35.205 32.1622 33.1574 30.9936 31.3869H30.9935L30.7072 30.9533L31.9546 27.253C32.9313 24.3552 32.5254 21.2297 30.8408 18.6775C30.8407 18.6775 30.8407 18.6775 30.8407 18.6775L30.7072 18.4754L31.9153 14.8914C32.866 12.0707 32.4708 9.02817 30.8311 6.54408L30.5074 6.05374C30.3511 5.81683 30.0729 5.68958 29.792 5.7264C29.5106 5.76292 29.2746 5.95667 29.1839 6.22562L27.8601 10.1532C26.9093 12.9738 27.3044 16.0162 28.9442 18.5005L29.0681 18.6881L27.8207 22.3884C26.8439 25.2861 27.2499 28.4116 28.9346 30.9638L29.0681 31.166L27.1959 36.7202C26.5183 38.7303 26.3046 40.905 26.5778 43.0086C26.8299 44.9499 27.4993 46.8431 28.5194 48.5151H23.6555L25.3132 43.5973C25.9907 41.587 26.2045 39.4125 25.9312 37.3088C25.6579 35.2051 24.8957 33.1575 23.7269 31.387L23.4407 30.9534L25.3129 25.3991C25.9905 23.389 26.2042 21.2144 25.931 19.1107C25.6577 17.007 24.8955 14.9593 23.7267 13.1888L23.4405 12.7552L24.6484 9.17114C25.5992 6.35043 25.2039 3.30803 23.5641 0.823841L23.2405 0.333507C23.0842 0.0965919 22.8057 -0.0304594 22.5251 0.00616188C22.2437 0.0426855 22.0077 0.236436 21.917 0.505383L20.5931 4.43294C19.6424 7.25355 20.0376 10.2959 21.6773 12.7801L21.8012 12.9678L19.9291 18.5221C19.2514 20.5322 19.0378 22.7068 19.3111 24.8105C19.5843 26.9142 20.3466 28.9618 21.5152 30.7323L21.8014 31.166L19.9294 36.7202C19.2517 38.7303 19.0381 40.9049 19.3114 43.0086C19.5634 44.9499 20.2329 46.8431 21.253 48.515H10.8488L12.5065 43.5972C12.9742 42.2097 13.221 40.7641 13.2403 39.301C13.2457 38.891 12.9176 38.5542 12.5076 38.5488C12.5042 38.5488 12.5009 38.5488 12.4976 38.5488C12.092 38.5488 11.7607 38.8749 11.7553 39.2816C11.7381 40.5898 11.5174 41.8822 11.0991 43.1229L9.60345 47.5596C7.75149 44.4182 7.35647 40.6769 8.5305 37.1944L10.0259 32.7577C10.747 33.9824 11.25 35.3098 11.5239 36.7124C11.6025 37.1148 11.9926 37.3774 12.395 37.299C12.7974 37.2204 13.0601 36.8303 12.9816 36.4279C12.6289 34.6203 11.9353 32.9241 10.9204 31.3867L10.6342 30.9531L11.8816 27.2528C12.8582 24.355 12.4524 21.2295 10.7678 18.6773C10.7677 18.6773 10.7677 18.6773 10.7677 18.6773L10.4344 18.1724C10.2781 17.9355 9.99974 17.8085 9.71908 17.8451C9.43763 17.8816 9.20169 18.0754 9.11097 18.3443L7.74778 22.3882C6.77102 25.2859 7.17698 28.4115 8.86165 30.9635L8.99515 31.1657L7.12307 36.7198C6.44543 38.7299 6.23166 40.9046 6.5049 43.0083C6.75705 44.9496 7.42649 46.8428 8.44651 48.5148H2.50088C2.09072 48.5148 1.7583 48.8473 1.7583 49.2573C1.7583 49.6674 2.09072 49.9999 2.50088 49.9999H47.4989C47.9091 49.9999 48.2415 49.6674 48.2415 49.2573C48.2415 48.8473 47.9091 48.515 47.4989 48.515ZM9.1553 22.8628L10.011 20.3245C11.0265 22.3194 11.2008 24.6233 10.4743 26.7786L9.61859 29.3168C8.60296 27.3218 8.42874 25.0181 9.1553 22.8628ZM22.0012 4.90735L22.8158 2.49045C23.7791 4.41233 23.9398 6.62533 23.2417 8.69672L22.4269 11.1136C21.4637 9.19175 21.3029 6.97875 22.0012 4.90735ZM21.3371 18.9964L22.8325 14.5594C24.6849 17.701 25.0797 21.442 23.9057 24.9246L22.4101 29.3616C20.5581 26.2202 20.1632 22.4789 21.3371 18.9964ZM21.3372 37.1945L22.8326 32.7575C24.6846 35.8988 25.0796 39.6401 23.9058 43.1226L22.4102 47.5596C20.5579 44.4183 20.1632 40.6773 21.3372 37.1945ZM29.2674 10.6276L30.082 8.21069C31.0453 10.1326 31.206 12.3456 30.5078 14.417L29.6931 16.8339C28.7297 14.912 28.5691 12.6991 29.2674 10.6276ZM29.2282 22.8628L30.0839 20.3245C31.0994 22.3194 31.2738 24.6233 30.5472 26.7786L29.6915 29.3169C28.676 27.3219 28.5017 25.018 29.2282 22.8628ZM28.6032 37.1945L30.0988 32.7575C31.9511 35.899 32.3459 39.64 31.1719 43.1226L29.6764 47.5596C27.824 44.4183 27.4293 40.6773 28.6032 37.1945ZM38.4712 23.1055L39.286 20.6886C40.2494 22.6105 40.41 24.8235 39.7118 26.8949L38.897 29.3119C37.9336 27.3898 37.7729 25.177 38.4712 23.1055ZM37.8072 37.1945L39.3027 32.7575C41.1549 35.8989 41.5498 39.6399 40.3757 43.1226L38.8803 47.5596C37.0284 44.4184 36.6334 40.6771 37.8072 37.1945Z" fill="#73877B"/>
</g>
<defs>
<clipPath id="clip0">
<rect width="50" height="50" fill="white"/>
</clipPath>
</defs>
</svg>