<svg width="25" height="25" viewBox="0 0 25 25" fill="none" xmlns="http://www.w3.org/2000/svg">
<path d="M23.62 0.000244169H1.37913C0.617576 0.000701928 0.000213653 0.618369 0.000366239 1.38023V23.6211C0.000823998 24.3827 0.618491 25 1.38035 24.9999H13.3547V15.3321H10.1076V11.5479H13.3547V8.76309C13.3547 5.53361 15.3262 3.77583 18.2071 3.77583C19.5869 3.77583 20.7726 3.87867 21.1182 3.9246V7.29995H19.1317C17.5644 7.29995 17.2609 8.04472 17.2609 9.13784V11.5479H21.0084L20.5201 15.3321H17.2609V24.9999H23.62C24.382 25 24.9999 24.3825 25 23.6205C25 23.6204 25 23.6202 25 23.6199V1.37901C24.9997 0.617454 24.3819 9.15831e-05 23.62 0.000244169Z" fill="#3F3F3F"/>
<defs>
<rect width="24.9997" height="24.9997" fill="white" transform="translate(0.000366211 0.000244141)"/>
</defs>
</svg>