<svg width="70" height="70" viewBox="0 0 70 70" fill="none" xmlns="http://www.w3.org/2000/svg">
<circle cx="35" cy="35" r="34" transform="rotate(-180 35 35)" stroke="#73877B" stroke-width="2"/>
<g clip-path="url(#clip0)">
<path d="M39.4709 44.8726C39.6435 45.0394 39.9187 45.0346 40.0855 44.8619C40.2482 44.6934 40.2482 44.4264 40.0855 44.258L30.8306 35.0022L40.0863 25.7474C40.259 25.5806 40.2638 25.3054 40.097 25.1327C39.9302 24.9601 39.6551 24.9553 39.4824 25.122C39.4788 25.1256 39.4752 25.1291 39.4717 25.1327L29.9091 34.6954C29.7394 34.8651 29.7394 35.1402 29.9091 35.31L39.4709 44.8726Z" fill="#73877B"/>
<path d="M39.7786 25.0049C40.0187 25.0045 40.2136 25.1988 40.2141 25.4388C40.2143 25.5545 40.1683 25.6656 40.0864 25.7473L30.8306 35.0022L40.0864 44.2571C40.2563 44.427 40.2563 44.7026 40.0864 44.8726C39.9164 45.0425 39.6409 45.0425 39.4709 44.8726L29.9083 35.3099C29.7386 35.1402 29.7386 34.8651 29.9083 34.6953L39.4709 25.1327C39.5524 25.0509 39.6631 25.0049 39.7786 25.0049Z" fill="#73877B"/>
</g>
<defs>
<clipPath id="clip0">
<rect width="20" height="20" fill="white" transform="translate(45 45) rotate(-180)"/>
</clipPath>
</defs>
</svg>
