<svg width="50" height="50" viewBox="0 0 50 50" fill="none" xmlns="http://www.w3.org/2000/svg">
<path d="M42.6777 7.32227C37.9558 2.60049 31.6777 0 25 0C18.3223 0 12.0442 2.60049 7.32227 7.32227C2.60049 12.0441 0 18.3223 0 25C0 29.2474 1.08613 33.4445 3.14102 37.1375C3.3377 37.4909 3.78369 37.6182 4.13711 37.4214C4.49062 37.2247 4.61768 36.7787 4.421 36.4253C2.48711 32.9495 1.46484 28.9987 1.46484 25C1.46484 18.7135 3.91289 12.8033 8.35811 8.35811C12.8033 3.91289 18.7135 1.46484 25 1.46484C31.2864 1.46484 37.1967 3.91289 41.6418 8.35811C46.0871 12.8033 48.5352 18.7136 48.5352 25C48.5352 31.2864 46.0871 37.1967 41.6418 41.6419C37.1967 46.0871 31.2864 48.5352 25 48.5352C17.7449 48.5352 11.0045 45.2632 6.50693 39.5581C6.25654 39.2405 5.796 39.1858 5.47832 39.4364C5.16064 39.6868 5.10615 40.1474 5.35654 40.465C10.1337 46.5246 17.2934 50 25 50C31.6777 50 37.9558 47.3995 42.6777 42.6777C47.3995 37.9559 50 31.6777 50 25C50 18.3223 47.3995 12.0441 42.6777 7.32227Z" fill="#73877B"/>
<path d="M39.6577 11.9627C35.9906 10.5766 32.1849 10.3063 28.9414 11.202C26.1513 11.9722 23.7859 13.7997 22.4517 16.2157C21.1901 18.5005 20.983 21.0253 21.898 22.9694C22.4661 24.1768 23.407 25.1692 24.5449 25.8499C24.5344 26.1054 24.5283 26.367 24.5283 26.6369V32.5856C24.1435 31.989 23.6996 31.4186 23.2121 30.8854C23.6572 29.7697 23.7231 28.5306 23.3673 27.3562C22.9319 25.9192 21.9758 24.787 20.6024 24.0821C18.7608 23.137 16.2143 23.0276 13.9561 23.7969C10.351 25.0249 8.73731 27.3984 8.67042 27.4988C8.53057 27.7087 8.5085 27.9758 8.61211 28.2056C8.71563 28.4356 8.93018 28.5962 9.18008 28.6305C10.7818 28.8511 11.6201 29.8683 12.5907 31.0462C13.7141 32.4094 14.9873 33.9545 17.6016 34.2679C17.8123 34.2931 18.0227 34.3056 18.2319 34.3056C19.7932 34.3056 21.2858 33.6124 22.3172 32.3831C22.3601 32.3319 22.3997 32.2789 22.4405 32.2265C23.3626 33.3182 24.0712 34.5597 24.4156 35.8117C24.4395 35.8984 24.4788 35.9763 24.5285 36.0453V40.5283C24.5285 40.9329 24.8565 41.2607 25.2609 41.2607C25.6655 41.2607 25.9934 40.9329 25.9934 40.5283V26.6371C25.9934 26.5947 25.9941 26.5534 25.9943 26.5115C26.6883 26.7385 27.4204 26.8599 28.1621 26.8599C28.36 26.8599 28.5588 26.8513 28.7575 26.8336C31.5372 26.5873 33.8826 24.6239 35.0317 21.5817C35.1319 21.3159 35.2302 21.0292 35.3319 20.7051C35.453 20.3191 35.2383 19.9081 34.8524 19.787C34.4664 19.6659 34.0554 19.8807 33.9343 20.2666C33.841 20.5638 33.7518 20.8247 33.6612 21.0642C32.7157 23.5677 30.8343 25.179 28.6282 25.3745C27.7571 25.4518 26.8771 25.3006 26.0737 24.9708C26.5593 20.1206 29.0926 18.7461 29.2213 18.6794C29.5805 18.499 29.7275 18.0624 29.5494 17.7012C29.3706 17.3384 28.9319 17.1888 28.5687 17.368C28.4244 17.439 25.4426 18.9718 24.6966 24.168C24.0718 23.6756 23.5576 23.0558 23.2235 22.3458C22.5081 20.8256 22.699 18.7986 23.7342 16.9238C24.8789 14.8508 26.9191 13.28 29.3315 12.614C31.9178 11.9001 34.9175 12.0096 37.8971 12.9105C36.8768 13.8073 36.0698 14.8037 35.4903 15.8847C35.2992 16.2412 35.4333 16.6851 35.7899 16.8763C35.9 16.9352 36.0185 16.9633 36.1352 16.9633C36.3965 16.9633 36.6493 16.8231 36.7814 16.5767C37.4448 15.339 38.4696 14.2191 39.8274 13.2481C40.0861 13.0743 40.211 12.7643 40.1421 12.4763C40.0519 12.0993 39.6796 11.9699 39.6577 11.9627ZM17.7759 32.8136C15.7444 32.57 14.7616 31.3773 13.7212 30.1146C12.9135 29.1345 12.0203 28.0505 10.6034 27.495C11.3096 26.8017 12.5577 25.8207 14.4284 25.1835C16.3236 24.5378 18.4331 24.6154 19.9335 25.3852C20.9598 25.912 21.6435 26.718 21.9654 27.7809C22.1615 28.4281 22.1799 29.1032 22.0359 29.7467C20.5066 28.4371 18.7117 27.4994 16.9507 27.2136C16.5509 27.1492 16.1752 27.4199 16.1104 27.8192C16.0455 28.2184 16.3167 28.5946 16.716 28.6595C18.3319 28.9218 20.0151 29.8628 21.4132 31.1537C21.3446 31.2519 21.273 31.3486 21.1948 31.4416C20.3317 32.4706 19.0852 32.9706 17.7759 32.8136Z" fill="#73877B"/>
</svg>
