<svg width="50" height="50" viewBox="0 0 50 50" fill="none" xmlns="http://www.w3.org/2000/svg">
<path d="M22.7677 23.2143C21.0448 23.2143 19.6427 24.6162 19.6427 26.3394C19.6427 28.0625 21.0446 29.4645 22.7677 29.4645C24.4909 29.4645 25.8928 28.0625 25.8928 26.3394C25.8928 24.6162 24.4907 23.2143 22.7677 23.2143ZM22.7677 27.6785C22.0294 27.6785 21.4285 27.0775 21.4285 26.3392C21.4285 25.6008 22.0294 24.9999 22.7677 24.9999C23.5061 24.9999 24.107 25.6008 24.107 26.3392C24.107 27.0775 23.5064 27.6785 22.7677 27.6785Z" fill="#73877B"/>
<path d="M42.8571 37.5001C41.3695 37.5001 40.0031 38.0244 38.9288 38.8953L32.6376 33.1718C33.4512 31.8263 33.9283 30.2554 33.9283 28.5715C33.9283 23.9494 30.3981 20.1376 25.8925 19.6882V12.4288C28.9164 11.9934 31.2497 9.39263 31.2497 6.24997C31.2499 2.80372 28.4462 0 25 0C21.5537 0 18.7498 2.80372 18.7498 6.24997C18.7498 9.39242 21.0831 11.9932 24.1069 12.4288V19.6882C19.6014 20.1378 16.0712 23.9497 16.0712 28.5715C16.0712 30.2549 16.548 31.8256 17.3612 33.171L11.1232 38.9356C10.0413 38.0394 8.65387 37.5001 7.14261 37.5001C3.69635 37.5001 0.892639 40.3038 0.892639 43.75C0.892639 47.1963 3.69635 50 7.14261 50C10.5889 50 13.3928 47.1963 13.3928 43.75C13.3928 42.4576 12.9983 41.2555 12.3237 40.2578L18.4388 34.6066C20.0717 36.3802 22.4044 37.5001 24.9997 37.5001C27.5951 37.5001 29.928 36.3802 31.5609 34.6066L37.7152 40.2055C37.0181 41.2137 36.6071 42.4342 36.6071 43.75C36.6071 47.1963 39.4108 50 42.8571 50C46.3033 50 49.1071 47.1963 49.1071 43.75C49.1071 40.3038 46.3033 37.5001 42.8571 37.5001ZM7.14261 48.2142C4.68109 48.2142 2.67822 46.2113 2.67822 43.7498C2.67822 41.2883 4.68109 39.2854 7.14261 39.2854C9.60413 39.2854 11.607 41.2883 11.607 43.7498C11.607 46.2115 9.60413 48.2142 7.14261 48.2142ZM20.5356 6.24997C20.5356 3.78845 22.5384 1.78558 25 1.78558C27.4615 1.78558 29.4643 3.78845 29.4643 6.24997C29.4643 8.71149 27.4615 10.7144 25 10.7144C22.5384 10.7144 20.5356 8.71149 20.5356 6.24997ZM25 35.7143C21.0614 35.7143 17.8572 32.5098 17.8572 28.5715C17.8572 24.6332 21.0617 21.4287 25 21.4287C28.9383 21.4287 32.1427 24.6332 32.1427 28.5715C32.1427 32.5098 28.9383 35.7143 25 35.7143ZM42.8571 48.2142C40.3956 48.2142 38.3927 46.2113 38.3927 43.7498C38.3927 42.5365 38.8826 41.4377 39.6708 40.6323L39.7146 40.5842C40.522 39.7825 41.6323 39.2854 42.8571 39.2854C45.3186 39.2854 47.3215 41.2883 47.3215 43.7498C47.3213 46.2115 45.3184 48.2142 42.8571 48.2142Z" fill="#73877B"/>
<path d="M42.8571 40.1786C40.8879 40.1786 39.2858 41.7807 39.2858 43.75C39.2858 44.2431 39.6856 44.6428 40.1786 44.6428C40.6715 44.6428 41.0713 44.2429 41.0713 43.75C41.0713 42.7653 41.8722 41.9642 42.8571 41.9642C43.3503 41.9642 43.7499 41.5643 43.7499 41.0714C43.7499 40.5783 43.3501 40.1786 42.8571 40.1786Z" fill="#73877B"/>
<path d="M7.14258 40.1786C5.17332 40.1786 3.5712 41.7807 3.5712 43.75C3.5712 44.2431 3.97108 44.6428 4.46399 44.6428C4.9569 44.6428 5.35678 44.2429 5.35678 43.75C5.35678 42.7653 6.15762 41.9642 7.14258 41.9642C7.6357 41.9642 8.03537 41.5643 8.03537 41.0714C8.03559 40.5783 7.6357 40.1786 7.14258 40.1786Z" fill="#73877B"/>
<path d="M25.8926 3.57135C25.8926 3.07822 25.4927 2.67856 24.9998 2.67856C23.0305 2.67856 21.4284 4.28068 21.4284 6.24994C21.4284 6.74307 21.8283 7.14273 22.3212 7.14273C22.8143 7.14273 23.214 6.74285 23.214 6.24994C23.214 5.2652 24.0148 4.46414 24.9998 4.46414C25.4927 4.46436 25.8926 4.06448 25.8926 3.57135Z" fill="#73877B"/>
</svg>