<svg width="50" height="50" viewBox="0 0 50 50" fill="none" xmlns="http://www.w3.org/2000/svg">
<path d="M44.9635 19.1271C44.9635 19.1271 50.6318 9.96178 42.2109 7.26868C41.6555 7.09164 41.1017 7.00933 40.5509 7.00933C38.7764 7.00933 37.037 7.86992 35.409 9.2004C36.0255 6.51658 35.8362 4.01732 34.1243 2.24887C32.5405 0.610202 30.9842 0.00144958 29.5484 0.00144958C25.4165 0.00144958 22.275 5.03806 22.275 5.03806C22.275 5.03806 19.257 3.17352 16.1765 3.17206C13.8877 3.17206 11.564 4.20198 10.4181 7.79219C9.66738 10.1358 10.6058 12.4596 12.3483 14.5927C11.4542 14.3882 10.5814 14.2723 9.74834 14.2723C8.08066 14.2723 6.57626 14.7361 5.39674 15.8774C-0.958145 22.0248 8.18593 27.7267 8.18593 27.7267C8.18593 27.7267 2.51918 36.8937 10.94 39.5852C11.4954 39.7622 12.0492 39.8461 12.5985 39.8461C13.4407 39.8461 14.2737 39.6508 15.0901 39.306C14.3821 39.9896 13.6513 40.6441 12.896 41.2666C9.32561 44.2096 5.22586 46.4647 0.712554 47.9691C0.299103 48.108 0 48.497 0 48.9579C0 49.5331 0.466866 49.9984 1.04056 49.9984C1.15657 49.9984 1.26643 49.9801 1.37013 49.945C6.14582 48.3536 10.4836 45.9627 14.263 42.8394C15.3646 41.9269 16.4205 40.952 17.426 39.919C17.3604 41.7195 17.8074 43.3475 19.025 44.6063C20.6103 46.2449 22.1651 46.8522 23.6008 46.8522C27.7342 46.8522 30.8742 41.8156 30.8742 41.8156C30.8742 41.8156 33.8922 43.6816 36.9728 43.6816C39.2615 43.6816 41.5852 42.6517 42.7326 39.063C43.4817 36.7179 42.5449 34.3941 40.8024 32.2611C41.695 32.4671 42.5693 32.5831 43.4008 32.5831C45.0685 32.5831 46.5729 32.1177 47.7538 30.9764C54.1075 24.8306 44.9635 19.1271 44.9635 19.1271ZM12.4016 8.42535C12.7892 7.21078 13.3491 6.34267 14.0616 5.84367C14.6277 5.44848 15.3189 5.25621 16.1764 5.25621C18.5749 5.25621 21.0925 6.75758 21.1825 6.81256L22.9387 7.91113L24.0435 6.14121C24.0496 6.13057 24.724 5.07009 25.8104 4.01732C26.7228 3.13544 28.1097 2.0857 29.5485 2.0857C30.5708 2.0857 31.5778 2.61213 32.6275 3.69693C33.5536 4.65361 33.8451 6.06798 33.5216 8.01796C33.2134 9.8779 32.3528 12.1055 30.9659 14.6399C29.3348 17.6213 27.3544 20.3098 26.1932 21.7974C24.5057 20.9856 21.5671 19.4676 18.7886 17.5298C16.4084 15.8682 14.6385 14.2479 13.5293 12.7144C12.3635 11.1016 11.9943 9.6994 12.4016 8.42535ZM12.5984 37.7616C12.2491 37.7617 11.9133 37.7097 11.5731 37.6014C9.99695 37.0964 9.03578 36.332 8.63903 35.2639C8.15996 33.9776 8.50173 32.3648 8.87397 31.2388C9.31955 29.8915 9.92372 28.8814 9.96033 28.8204L11.0741 27.0597L9.29045 25.9611C9.23401 25.9245 8.24374 25.2852 7.24585 24.2736C6.4128 23.4298 5.39049 22.1359 5.24861 20.7704C5.1326 19.6368 5.65444 18.526 6.8446 17.3755C7.55413 16.6889 8.50466 16.3548 9.74814 16.3548C11.4754 16.3548 13.6648 16.991 16.1977 18.2147C18.7778 20.1967 21.6722 21.8384 23.7854 22.9248C24.2248 23.2513 24.6138 23.5503 24.945 23.8082C24.7634 24.185 24.5468 24.6245 24.298 25.1113C22.8882 27.0216 21.0206 29.7756 19.588 32.6944C17.0292 35.9825 14.594 37.7616 12.5984 37.7616ZM40.7476 38.4283C40.3601 39.6429 39.8016 40.5126 39.0876 41.01C38.5215 41.4067 37.8303 41.5989 36.9729 41.5989C34.5774 41.5989 32.0629 40.0991 31.9683 40.0426L30.2106 38.9425L29.1074 40.7139C29.0998 40.7231 28.4269 41.785 27.3391 42.8363C26.4282 43.7181 25.0397 44.7694 23.6009 44.7694C22.5786 44.7694 21.5716 44.2415 20.5234 43.1582C19.5972 42.2 19.3043 40.7872 19.6277 38.8356C19.9375 36.9757 20.798 34.7481 22.185 32.2137C23.816 29.2338 25.795 26.5438 26.9561 25.0562C27.3345 25.2377 27.7739 25.4544 28.2606 25.7031C30.1709 27.1145 32.925 28.982 35.8437 30.4147C37.4886 31.6951 38.755 32.9432 39.6216 34.1409C40.7874 35.7521 41.155 37.1543 40.7476 38.4283ZM46.3046 29.4796C45.5951 30.1662 44.6461 30.5004 43.4011 30.5004C40.8164 30.5004 37.1957 29.0768 32.9341 26.3838C30.9643 25.1388 29.2738 23.8815 28.2057 23.0469C28.3872 22.6685 28.6055 22.2261 28.8542 21.7393C30.2641 19.829 32.1301 17.0765 33.5628 14.1592C36.1215 10.8711 38.5567 9.09201 40.551 9.09201C40.9004 9.09201 41.2361 9.14543 41.5763 9.25372C43.1539 9.75721 44.1136 10.5216 44.512 11.5897C44.991 12.876 44.6478 14.4902 44.2754 15.6162C43.8299 16.9651 43.2257 17.9751 43.1906 18.0346L42.0905 19.7908L43.862 20.8955C43.8712 20.9016 44.8369 21.515 45.8424 22.5174C46.6999 23.3748 47.7528 24.6871 47.8992 26.0756C48.0196 27.2123 47.4978 28.3246 46.3046 29.4796Z" fill="#73877B"/>
</svg>
