<svg width="50" height="50" viewBox="0 0 50 50" fill="none" xmlns="http://www.w3.org/2000/svg">
<path d="M33.2428 9.30909C32.9062 8.96378 32.2993 8.96378 31.9624 9.30909C31.3319 9.95721 16.5275 25.277 16.5275 33.925C16.5275 42.7888 23.7391 50 32.6025 50C41.4659 50 48.6775 42.7888 48.6775 33.925C48.6775 25.277 33.8733 9.95699 33.2428 9.30909ZM32.6025 48.214C24.7236 48.214 18.3135 41.8038 18.3135 33.925C18.3135 26.9541 29.7454 14.2871 32.6025 11.2304C35.4604 14.2864 46.8915 26.9506 46.8915 33.925C46.8915 41.8038 40.4816 48.214 32.6025 48.214Z" fill="#73877B"/>
<path d="M19.2295 13.6197C19.2295 8.94059 11.7676 1.13376 10.9164 0.258984C10.5798 -0.0863281 9.9729 -0.0863281 9.63605 0.258984C8.7847 1.13376 1.32253 8.94059 1.32253 13.6197C1.32253 18.5564 5.33873 22.5726 10.2759 22.5726C15.2131 22.5726 19.2295 18.5562 19.2295 13.6197ZM10.2759 20.7864C6.32435 20.7864 3.10874 17.5712 3.10874 13.6197C3.10874 10.5607 7.80602 4.85129 10.2759 2.18076C12.7467 4.85042 17.4431 10.5576 17.4431 13.6197C17.4433 17.5712 14.2277 20.7864 10.2759 20.7864Z" fill="#73877B"/>
<path d="M9.38295 16.9567C7.90562 16.9567 6.70375 15.7549 6.70375 14.2775C6.70375 13.7843 6.30421 13.3845 5.81075 13.3845C5.31729 13.3845 4.91776 13.7845 4.91776 14.2775C4.91776 16.7396 6.92109 18.7429 9.38317 18.7429C9.87685 18.7429 10.2762 18.343 10.2762 17.8499C10.2762 17.3569 9.87663 16.9567 9.38295 16.9567Z" fill="#73877B"/>
<path d="M32.6026 42.8556C27.6784 42.8556 23.672 38.8496 23.672 33.925C23.672 33.4317 23.2724 33.032 22.779 33.032C22.2855 33.032 21.886 33.432 21.886 33.925C21.886 39.8341 26.6932 44.6418 32.6028 44.6418C33.0965 44.6418 33.4958 44.2418 33.4958 43.7488C33.4958 43.2558 33.0961 42.8556 32.6026 42.8556Z" fill="#73877B"/>
</svg>