<svg width="50" height="50" viewBox="0 0 50 50" fill="none" xmlns="http://www.w3.org/2000/svg">
<path d="M49.2188 27.3438H0.78125V28.9062H49.2188V27.3438Z" fill="#73877B"/>
<path d="M46.9695 31.8023C46.1157 30.9484 44.9576 30.4687 43.75 30.4688C42.5425 30.4687 41.3844 30.9484 40.5305 31.8023L39.6149 32.7179C39.0539 33.2787 38.2932 33.5937 37.5 33.5937C36.7068 33.5937 35.9461 33.2787 35.3852 32.7179L34.4695 31.8023C33.6157 30.9484 32.4576 30.4688 31.25 30.4688C30.0425 30.4688 28.8844 30.9484 28.0305 31.8023L27.1149 32.7179C26.5539 33.2787 25.7932 33.5937 25 33.5937C24.2068 33.5937 23.4461 33.2787 22.8852 32.7179L21.9695 31.8023C21.1157 30.9484 19.9576 30.4687 18.75 30.4688C17.5425 30.4687 16.3844 30.9484 15.5305 31.8023L14.6149 32.7179C14.0539 33.2787 13.2932 33.5937 12.5 33.5937C11.7068 33.5937 10.9461 33.2787 10.3852 32.7179L9.46954 31.8023C8.61566 30.9484 7.45756 30.4688 6.25001 30.4688C5.04245 30.4688 3.88435 30.9484 3.03048 31.8023L0.228912 34.6039L1.3336 35.7086L4.13516 32.907C4.69613 32.3462 5.45683 32.0312 6.25001 32.0312C7.04318 32.0312 7.80388 32.3462 8.36485 32.907L9.28048 33.8226C10.1344 34.6765 11.2924 35.1562 12.5 35.1562C13.7076 35.1562 14.8657 34.6765 15.7195 33.8226L16.6352 32.907C17.1961 32.3462 17.9568 32.0312 18.75 32.0312C19.5432 32.0312 20.3039 32.3462 20.8649 32.907L21.7805 33.8226C22.6344 34.6765 23.7925 35.1562 25 35.1562C26.2076 35.1562 27.3657 34.6765 28.2195 33.8226L29.1352 32.907C29.6961 32.3462 30.4568 32.0312 31.25 32.0312C32.0432 32.0312 32.8039 32.3462 33.3649 32.907L34.2805 33.8226C35.1344 34.6765 36.2925 35.1562 37.5 35.1562C38.7076 35.1562 39.8657 34.6765 40.7195 33.8226L41.6352 32.907C42.1961 32.3462 42.9568 32.0312 43.75 32.0312C44.5432 32.0312 45.3039 32.3462 45.8649 32.907L48.6664 35.7086L49.7711 34.6039L46.9695 31.8023Z" fill="#73877B"/>
<path d="M6.24999 35.1562C5.63192 35.1562 5.02773 35.3395 4.51383 35.6829C3.99993 36.0263 3.59939 36.5143 3.36286 37.0854C3.12634 37.6564 3.06445 38.2847 3.18503 38.8909C3.30561 39.4971 3.60324 40.0539 4.04028 40.491C4.47732 40.928 5.03414 41.2256 5.64033 41.3462C6.24652 41.4668 6.87485 41.4049 7.44587 41.1684C8.01689 40.9319 8.50495 40.5313 8.84833 40.0174C9.19171 39.5035 9.37499 38.8993 9.37499 38.2813C9.37499 37.4525 9.04575 36.6576 8.4597 36.0715C7.87364 35.4855 7.07879 35.1562 6.24999 35.1562ZM6.24999 39.8438C5.94095 39.8438 5.63886 39.7521 5.38191 39.5804C5.12496 39.4087 4.92469 39.1647 4.80642 38.8792C4.68816 38.5937 4.65722 38.2795 4.71751 37.9764C4.7778 37.6733 4.92661 37.3949 5.14513 37.1764C5.36365 36.9579 5.64206 36.8091 5.94516 36.7488C6.24825 36.6885 6.56242 36.7194 6.84793 36.8377C7.13344 36.956 7.37747 37.1562 7.54916 37.4132C7.72085 37.6701 7.81249 37.9722 7.81249 38.2813C7.81249 38.6957 7.64787 39.0931 7.35484 39.3861C7.06182 39.6791 6.66439 39.8438 6.24999 39.8438Z" fill="#73877B"/>
<path d="M18.75 35.1562C18.1319 35.1562 17.5277 35.3395 17.0138 35.6829C16.4999 36.0263 16.0994 36.5143 15.8629 37.0854C15.6264 37.6564 15.5645 38.2847 15.685 38.8909C15.8056 39.4971 16.1033 40.0539 16.5403 40.491C16.9773 40.928 17.5342 41.2256 18.1403 41.3462C18.7465 41.4668 19.3749 41.4049 19.9459 41.1684C20.5169 40.9319 21.005 40.5313 21.3483 40.0174C21.6917 39.5035 21.875 38.8993 21.875 38.2813C21.875 37.4525 21.5458 36.6576 20.9597 36.0715C20.3737 35.4855 19.5788 35.1562 18.75 35.1562ZM18.75 39.8438C18.441 39.8438 18.1389 39.7521 17.8819 39.5804C17.625 39.4087 17.4247 39.1647 17.3064 38.8792C17.1882 38.5937 17.1572 38.2795 17.2175 37.9764C17.2778 37.6733 17.4266 37.3949 17.6451 37.1764C17.8637 36.9579 18.1421 36.8091 18.4452 36.7488C18.7483 36.6885 19.0624 36.7194 19.3479 36.8377C19.6335 36.956 19.8775 37.1562 20.0492 37.4132C20.2209 37.6701 20.3125 37.9722 20.3125 38.2813C20.3125 38.6957 20.1479 39.0931 19.8549 39.3861C19.5618 39.6791 19.1644 39.8438 18.75 39.8438Z" fill="#73877B"/>
<path d="M31.25 35.1562C30.6319 35.1562 30.0277 35.3395 29.5138 35.6829C28.9999 36.0263 28.5994 36.5143 28.3629 37.0854C28.1264 37.6564 28.0645 38.2847 28.185 38.8909C28.3056 39.4971 28.6033 40.0539 29.0403 40.491C29.4773 40.928 30.0341 41.2256 30.6403 41.3462C31.2465 41.4668 31.8749 41.4049 32.4459 41.1684C33.0169 40.9319 33.505 40.5313 33.8483 40.0174C34.1917 39.5035 34.375 38.8993 34.375 38.2813C34.375 37.4525 34.0457 36.6576 33.4597 36.0715C32.8736 35.4855 32.0788 35.1562 31.25 35.1562ZM31.25 39.8438C30.941 39.8438 30.6389 39.7521 30.3819 39.5804C30.125 39.4087 29.9247 39.1647 29.8064 38.8792C29.6882 38.5937 29.6572 38.2795 29.7175 37.9764C29.7778 37.6733 29.9266 37.3949 30.1451 37.1764C30.3637 36.9579 30.6421 36.8091 30.9452 36.7488C31.2483 36.6885 31.5624 36.7194 31.8479 36.8377C32.1334 36.956 32.3775 37.1562 32.5492 37.4132C32.7209 37.6701 32.8125 37.9722 32.8125 38.2813C32.8125 38.6957 32.6479 39.0931 32.3548 39.3861C32.0618 39.6791 31.6644 39.8438 31.25 39.8438Z" fill="#73877B"/>
<path d="M43.75 35.1562C43.1319 35.1562 42.5277 35.3395 42.0138 35.6829C41.4999 36.0263 41.0994 36.5143 40.8629 37.0854C40.6264 37.6564 40.5645 38.2847 40.685 38.8909C40.8056 39.4971 41.1033 40.0539 41.5403 40.491C41.9773 40.928 42.5341 41.2256 43.1403 41.3462C43.7465 41.4668 44.3749 41.4049 44.9459 41.1684C45.5169 40.9319 46.005 40.5313 46.3483 40.0174C46.6917 39.5035 46.875 38.8993 46.875 38.2813C46.875 37.4525 46.5457 36.6576 45.9597 36.0715C45.3736 35.4855 44.5788 35.1562 43.75 35.1562ZM43.75 39.8438C43.441 39.8438 43.1389 39.7521 42.8819 39.5804C42.625 39.4087 42.4247 39.1647 42.3064 38.8792C42.1882 38.5937 42.1572 38.2795 42.2175 37.9764C42.2778 37.6733 42.4266 37.3949 42.6451 37.1764C42.8637 36.9579 43.1421 36.8091 43.4452 36.7488C43.7483 36.6885 44.0624 36.7194 44.3479 36.8377C44.6334 36.956 44.8775 37.1562 45.0492 37.4132C45.2209 37.6701 45.3125 37.9722 45.3125 38.2813C45.3125 38.6957 45.1479 39.0931 44.8548 39.3861C44.5618 39.6791 44.1644 39.8438 43.75 39.8438Z" fill="#73877B"/>
<path d="M12.5 40.5469C12.0364 40.5469 11.5833 40.6843 11.1979 40.9419C10.8124 41.1994 10.512 41.5654 10.3346 41.9937C10.1573 42.422 10.1108 42.8932 10.2013 43.3479C10.2917 43.8025 10.5149 44.2201 10.8427 44.5479C11.1705 44.8757 11.5881 45.0989 12.0427 45.1893C12.4974 45.2798 12.9686 45.2334 13.3969 45.056C13.8252 44.8786 14.1912 44.5782 14.4487 44.1927C14.7063 43.8073 14.8437 43.3542 14.8437 42.8906C14.8437 42.269 14.5968 41.6729 14.1573 41.2333C13.7177 40.7938 13.1216 40.5469 12.5 40.5469ZM12.5 43.6719C12.3455 43.6719 12.1944 43.6261 12.0659 43.5402C11.9375 43.4544 11.8373 43.3324 11.7782 43.1896C11.7191 43.0468 11.7036 42.8898 11.7337 42.7382C11.7639 42.5867 11.8383 42.4475 11.9476 42.3382C12.0568 42.2289 12.196 42.1545 12.3476 42.1244C12.4991 42.0942 12.6562 42.1097 12.799 42.1688C12.9417 42.228 13.0637 42.3281 13.1496 42.4566C13.2354 42.5851 13.2812 42.7361 13.2812 42.8906C13.2812 43.0978 13.1989 43.2965 13.0524 43.4431C12.9059 43.5896 12.7072 43.6719 12.5 43.6719Z" fill="#73877B"/>
<path d="M25 40.625C24.5365 40.625 24.0833 40.7625 23.6979 41.02C23.3125 41.2775 23.0121 41.6436 22.8347 42.0718C22.6573 42.5001 22.6109 42.9714 22.7013 43.426C22.7917 43.8806 23.0149 44.2983 23.3427 44.626C23.6705 44.9538 24.0881 45.177 24.5428 45.2675C24.9974 45.3579 25.4687 45.3115 25.8969 45.1341C26.3252 44.9567 26.6912 44.6563 26.9488 44.2709C27.2063 43.8854 27.3438 43.4323 27.3438 42.9688C27.3438 42.3472 27.0968 41.751 26.6573 41.3115C26.2178 40.8719 25.6216 40.625 25 40.625ZM25 43.75C24.8455 43.75 24.6944 43.7042 24.566 43.6183C24.4375 43.5325 24.3374 43.4105 24.2782 43.2677C24.2191 43.125 24.2036 42.9679 24.2338 42.8163C24.2639 42.6648 24.3383 42.5256 24.4476 42.4163C24.5568 42.3071 24.696 42.2327 24.8476 42.2025C24.9991 42.1724 25.1562 42.1878 25.299 42.247C25.4417 42.3061 25.5637 42.4062 25.6496 42.5347C25.7354 42.6632 25.7813 42.8142 25.7813 42.9688C25.7813 43.176 25.6989 43.3747 25.5524 43.5212C25.4059 43.6677 25.2072 43.75 25 43.75Z" fill="#73877B"/>
<path d="M37.5 40.625C37.0365 40.625 36.5833 40.7625 36.1979 41.02C35.8125 41.2775 35.5121 41.6436 35.3347 42.0718C35.1573 42.5001 35.1109 42.9714 35.2013 43.426C35.2917 43.8806 35.5149 44.2983 35.8427 44.626C36.1705 44.9538 36.5881 45.177 37.0428 45.2675C37.4974 45.3579 37.9687 45.3115 38.3969 45.1341C38.8252 44.9567 39.1912 44.6563 39.4488 44.2709C39.7063 43.8854 39.8438 43.4323 39.8438 42.9688C39.8438 42.3472 39.5968 41.751 39.1573 41.3115C38.7177 40.8719 38.1216 40.625 37.5 40.625ZM37.5 43.75C37.3455 43.75 37.1944 43.7042 37.066 43.6183C36.9375 43.5325 36.8374 43.4105 36.7782 43.2677C36.7191 43.125 36.7036 42.9679 36.7338 42.8163C36.7639 42.6648 36.8383 42.5256 36.9476 42.4163C37.0568 42.3071 37.196 42.2327 37.3476 42.2025C37.4991 42.1724 37.6562 42.1878 37.799 42.247C37.9417 42.3061 38.0637 42.4062 38.1496 42.5347C38.2354 42.6632 38.2813 42.8142 38.2813 42.9688C38.2813 43.176 38.1989 43.3747 38.0524 43.5212C37.9059 43.6677 37.7072 43.75 37.5 43.75Z" fill="#73877B"/>
<path d="M18.75 49.2188C19.6129 49.2188 20.3125 48.5192 20.3125 47.6562C20.3125 46.7933 19.6129 46.0938 18.75 46.0938C17.8871 46.0938 17.1875 46.7933 17.1875 47.6562C17.1875 48.5192 17.8871 49.2188 18.75 49.2188Z" fill="#73877B"/>
<path d="M31.25 49.2188C32.1129 49.2188 32.8125 48.5192 32.8125 47.6562C32.8125 46.7933 32.1129 46.0938 31.25 46.0938C30.3871 46.0938 29.6875 46.7933 29.6875 47.6562C29.6875 48.5192 30.3871 49.2188 31.25 49.2188Z" fill="#73877B"/>
<path d="M43.75 49.2188C44.6129 49.2188 45.3125 48.5192 45.3125 47.6562C45.3125 46.7933 44.6129 46.0938 43.75 46.0938C42.8871 46.0938 42.1875 46.7933 42.1875 47.6562C42.1875 48.5192 42.8871 49.2188 43.75 49.2188Z" fill="#73877B"/>
<path d="M6.25 49.2188C7.11295 49.2188 7.8125 48.5192 7.8125 47.6562C7.8125 46.7933 7.11295 46.0938 6.25 46.0938C5.38706 46.0938 4.6875 46.7933 4.6875 47.6562C4.6875 48.5192 5.38706 49.2188 6.25 49.2188Z" fill="#73877B"/>
<path d="M17.1875 13.2812C17.1779 14.4191 17.4191 15.545 17.8939 16.5791C18.3687 17.6132 19.0654 18.53 19.9345 19.2643C20.8037 19.9987 21.8239 20.5326 22.9227 20.8282C24.0215 21.1237 25.1719 21.1735 26.2922 20.9742C26.5914 21.3587 27.0034 21.6399 27.4705 21.7784C27.9375 21.917 28.4362 21.906 28.8967 21.7469C29.3572 21.5878 29.7563 21.2886 30.0382 20.8913C30.3201 20.494 30.4707 20.0184 30.4688 19.5312C30.4661 19.3283 30.4367 19.1265 30.3813 18.9312C31.6069 17.7855 32.4293 16.2743 32.7258 14.6229C33.0223 12.9715 32.777 11.2686 32.0265 9.76803C31.276 8.26748 30.0606 7.04976 28.5614 6.2965C27.0622 5.54324 25.3597 5.29481 23.7078 5.58827C23.3795 5.15744 22.911 4.85469 22.3834 4.73223C21.8557 4.60977 21.3018 4.67528 20.8173 4.91746C20.3327 5.15964 19.9479 5.56332 19.7291 6.05887C19.5103 6.55442 19.4713 7.11078 19.6188 7.63202C18.8508 8.35893 18.2391 9.23481 17.8211 10.2061C17.403 11.1774 17.1875 12.2238 17.1875 13.2812ZM28.125 20.3125C27.9705 20.3125 27.8194 20.2667 27.691 20.1808C27.5625 20.095 27.4624 19.973 27.4032 19.8302C27.3441 19.6875 27.3286 19.5304 27.3588 19.3788C27.3889 19.2273 27.4633 19.0881 27.5726 18.9788C27.6818 18.8696 27.821 18.7951 27.9726 18.765C28.1241 18.7349 28.2812 18.7503 28.424 18.8095C28.5667 18.8686 28.6888 18.9687 28.7746 19.0972C28.8604 19.2257 28.9063 19.3767 28.9063 19.5312C28.9063 19.7384 28.8239 19.9372 28.6774 20.0837C28.5309 20.2302 28.3322 20.3125 28.125 20.3125ZM31.25 13.2812C31.2525 14.9058 30.6197 16.4669 29.4867 17.6312C29.1414 17.381 28.734 17.2303 28.3089 17.1954C27.8838 17.1606 27.4574 17.243 27.0759 17.4336C26.6944 17.6243 26.3725 17.916 26.1452 18.2768C25.9179 18.6377 25.7939 19.054 25.7867 19.4805C25.5258 19.5134 25.263 19.5304 25 19.5312C23.7723 19.531 22.5718 19.1692 21.5484 18.491C20.525 17.8127 19.724 16.8481 19.2454 15.7175C18.7668 14.5868 18.6319 13.3403 18.8573 12.1334C19.0828 10.9265 19.6588 9.81281 20.5133 8.93124C20.8586 9.18148 21.266 9.33222 21.6911 9.36706C22.1162 9.40189 22.5426 9.3195 22.9241 9.12883C23.3056 8.93816 23.6276 8.64652 23.8548 8.28564C24.0821 7.92476 24.2061 7.50845 24.2133 7.08202C24.4742 7.04903 24.737 7.03208 25 7.03124C26.657 7.0331 28.2457 7.69218 29.4174 8.86388C30.5891 10.0356 31.2481 11.6242 31.25 13.2812ZM21.875 6.24999C22.0295 6.24999 22.1806 6.29581 22.309 6.38165C22.4375 6.4675 22.5377 6.58951 22.5968 6.73227C22.6559 6.87502 22.6714 7.0321 22.6412 7.18365C22.6111 7.3352 22.5367 7.47441 22.4274 7.58367C22.3182 7.69293 22.179 7.76733 22.0274 7.79748C21.8759 7.82762 21.7188 7.81215 21.576 7.75302C21.4333 7.69389 21.3113 7.59375 21.2254 7.46528C21.1396 7.3368 21.0938 7.18576 21.0938 7.03124C21.0938 6.82404 21.1761 6.62532 21.3226 6.47881C21.4691 6.3323 21.6678 6.24999 21.875 6.24999Z" fill="#73877B"/>
<path d="M21.0938 13.2812C21.0938 14.0538 21.3228 14.8091 21.7521 15.4514C22.1813 16.0938 22.7914 16.5945 23.5051 16.8901C24.2189 17.1858 25.0043 17.2632 25.7621 17.1124C26.5198 16.9617 27.2158 16.5897 27.7621 16.0434C28.3084 15.4971 28.6805 14.8011 28.8312 14.0433C28.9819 13.2856 28.9046 12.5002 28.6089 11.7864C28.3133 11.0726 27.8126 10.4625 27.1702 10.0333C26.5278 9.6041 25.7726 9.375 25 9.375C23.9644 9.37624 22.9715 9.78819 22.2392 10.5205C21.5069 11.2528 21.095 12.2456 21.0938 13.2812ZM27.3438 13.2812C27.3438 13.7448 27.2063 14.1979 26.9488 14.5834C26.6912 14.9688 26.3252 15.2692 25.8969 15.4466C25.4687 15.624 24.9974 15.6704 24.5428 15.58C24.0881 15.4895 23.6705 15.2663 23.3427 14.9385C23.0149 14.6107 22.7917 14.1931 22.7013 13.7385C22.6109 13.2838 22.6573 12.8126 22.8347 12.3843C23.0121 11.9561 23.3125 11.59 23.6979 11.3325C24.0833 11.075 24.5365 10.9375 25 10.9375C25.6216 10.9375 26.2178 11.1844 26.6573 11.624C27.0968 12.0635 27.3438 12.6596 27.3438 13.2812Z" fill="#73877B"/>
<path d="M14.8437 19.5313C14.9222 19.5275 15.0005 19.5197 15.0781 19.5078C16.0167 21.0015 17.2798 22.2645 18.7734 23.2031C18.7617 23.2808 18.7538 23.359 18.75 23.4375C18.749 23.9326 18.9051 24.4152 19.1959 24.8159C19.4867 25.2166 19.8972 25.5146 20.3682 25.6671C20.8392 25.8195 21.3465 25.8186 21.8169 25.6643C22.2874 25.51 22.6967 25.2104 22.9859 24.8086C24.961 25.1739 26.9973 25.0153 28.8921 24.3487C30.7868 23.6821 32.4738 22.5308 33.7852 21.0094C33.9773 21.0629 34.1756 21.0913 34.375 21.0938C34.8349 21.0946 35.2848 20.9598 35.6685 20.7063C36.0523 20.4528 36.3527 20.0918 36.5324 19.6685C36.712 19.2451 36.7629 18.7782 36.6787 18.3261C36.5944 17.874 36.3787 17.4568 36.0586 17.1266C36.4931 15.891 36.7163 14.591 36.7188 13.2813C36.7117 11.1466 36.1243 9.05404 35.0196 7.22749C33.9148 5.40094 32.3342 3.90914 30.4469 2.91173C30.4081 2.44922 30.2318 2.0089 29.9406 1.64749C29.6494 1.28608 29.2567 1.02012 28.813 0.883882C28.3693 0.747643 27.895 0.747359 27.4512 0.883067C27.0073 1.01878 26.6143 1.28426 26.3227 1.64532C25.8837 1.59311 25.4421 1.56546 25 1.56251C23.3354 1.5613 21.6899 1.91686 20.1744 2.60524C18.6588 3.29362 17.3084 4.29883 16.2141 5.55314C16.0222 5.49954 15.8242 5.47117 15.625 5.46876C15.1651 5.46794 14.7152 5.6027 14.3315 5.85621C13.9477 6.10971 13.6473 6.4707 13.4676 6.89405C13.288 7.3174 13.2371 7.78431 13.3214 8.23642C13.4056 8.68852 13.6213 9.10575 13.9414 9.43595C13.2678 11.3128 13.106 13.3352 13.4727 15.2953C13.0709 15.5846 12.7713 15.9939 12.617 16.4643C12.4627 16.9348 12.4617 17.442 12.6142 17.9131C12.7666 18.3841 13.0647 18.7946 13.4654 19.0854C13.866 19.3762 14.3487 19.5323 14.8437 19.5313ZM14.0625 17.1875C14.0625 17.033 14.1083 16.8819 14.1942 16.7535C14.28 16.625 14.402 16.5249 14.5448 16.4657C14.6875 16.4066 14.8446 16.3911 14.9962 16.4213C15.1477 16.4514 15.2869 16.5258 15.3962 16.6351C15.5054 16.7443 15.5798 16.8835 15.61 17.0351C15.6401 17.1866 15.6247 17.3437 15.5655 17.4865C15.5064 17.6292 15.4063 17.7513 15.2778 17.8371C15.1493 17.9229 14.9983 17.9688 14.8437 17.9688C14.6365 17.9688 14.4378 17.8865 14.2913 17.7399C14.1448 17.5934 14.0625 17.3947 14.0625 17.1875ZM21.0938 24.2188C20.9392 24.2188 20.7882 24.1729 20.6597 24.0871C20.5312 24.0013 20.4311 23.8792 20.372 23.7365C20.3128 23.5937 20.2974 23.4366 20.3275 23.2851C20.3577 23.1335 20.4321 22.9943 20.5413 22.8851C20.6506 22.7758 20.7898 22.7014 20.9413 22.6713C21.0929 22.6411 21.25 22.6566 21.3927 22.7157C21.5355 22.7749 21.6575 22.875 21.7433 23.0035C21.8292 23.1319 21.875 23.283 21.875 23.4375C21.875 23.6447 21.7927 23.8434 21.6462 23.9899C21.4997 24.1365 21.301 24.2188 21.0938 24.2188ZM34.375 19.5313C34.2205 19.5313 34.0694 19.4854 33.941 19.3996C33.8125 19.3138 33.7124 19.1917 33.6532 19.049C33.5941 18.9062 33.5786 18.7491 33.6088 18.5976C33.6389 18.446 33.7133 18.3068 33.8226 18.1976C33.9318 18.0883 34.071 18.0139 34.2226 17.9838C34.3741 17.9536 34.5312 17.9691 34.674 18.0282C34.8167 18.0874 34.9388 18.1875 35.0246 18.316C35.1104 18.4444 35.1563 18.5955 35.1563 18.75C35.1563 18.9572 35.074 19.1559 34.9274 19.3024C34.7809 19.449 34.5822 19.5313 34.375 19.5313ZM28.125 2.34376C28.2795 2.34376 28.4306 2.38958 28.559 2.47543C28.6875 2.56127 28.7877 2.68329 28.8468 2.82604C28.9059 2.9688 28.9214 3.12588 28.8912 3.27743C28.8611 3.42897 28.7867 3.56818 28.6774 3.67744C28.5682 3.7867 28.429 3.86111 28.2774 3.89125C28.1259 3.9214 27.9688 3.90592 27.826 3.84679C27.6833 3.78766 27.5613 3.68753 27.4754 3.55905C27.3896 3.43058 27.3438 3.27953 27.3438 3.12501C27.3438 2.91781 27.4261 2.7191 27.5726 2.57258C27.7191 2.42607 27.9178 2.34376 28.125 2.34376ZM25 3.12501C25.2604 3.12501 25.5208 3.13517 25.7813 3.15548C25.7865 3.65124 25.9493 4.13249 26.2459 4.52972C26.5426 4.92696 26.9579 5.21961 27.4317 5.36542C27.9056 5.51123 28.4135 5.50265 28.8822 5.34092C29.3509 5.17918 29.756 4.87267 30.0391 4.46564C31.5895 5.35803 32.8783 6.6421 33.7764 8.18925C34.6744 9.73641 35.1503 11.4924 35.1563 13.2813C35.155 14.3524 34.9833 15.4165 34.6477 16.4336C34.5574 16.4193 34.4663 16.4102 34.375 16.4063C33.7534 16.4063 33.1573 16.6532 32.7177 17.0927C32.2782 17.5323 32.0313 18.1284 32.0313 18.75C32.0325 19.2445 32.1915 19.7256 32.4852 20.1234C31.5382 21.168 30.3828 22.0025 29.0936 22.5733C27.8044 23.1441 26.4099 23.4385 25 23.4375C24.4717 23.4327 23.9446 23.387 23.4234 23.3008C23.3993 22.8522 23.2462 22.4202 22.9825 22.0565C22.7187 21.6929 22.3556 21.4131 21.9368 21.2509C21.5179 21.0886 21.0611 21.0507 20.6212 21.1417C20.1813 21.2328 19.7771 21.4489 19.457 21.7641C18.2846 20.9989 17.2834 19.9993 16.5164 18.8281C16.8316 18.5081 17.0477 18.104 17.1388 17.6642C17.2298 17.2243 17.192 16.7676 17.0298 16.3487C16.8676 15.9299 16.588 15.5668 16.2244 15.303C15.8609 15.0392 15.429 14.886 14.9805 14.8617C14.8941 14.3392 14.8484 13.8108 14.8437 13.2813C14.845 12.2102 15.0167 11.1461 15.3523 10.1289C15.4426 10.1432 15.5337 10.1523 15.625 10.1563C16.0575 10.1581 16.4821 10.0396 16.8512 9.81423C17.2204 9.58881 17.5197 9.26526 17.7157 8.87967C17.9117 8.49407 17.9967 8.06161 17.9612 7.63052C17.9258 7.19943 17.7712 6.78667 17.5148 6.43829C18.4621 5.39409 19.6175 4.55981 20.9066 3.98916C22.1958 3.41851 23.5902 3.12415 25 3.12501ZM15.625 7.03126C15.7795 7.03126 15.9306 7.07708 16.059 7.16293C16.1875 7.24877 16.2876 7.37079 16.3468 7.51354C16.4059 7.65629 16.4214 7.81338 16.3912 7.96493C16.3611 8.11647 16.2867 8.25568 16.1774 8.36494C16.0682 8.4742 15.929 8.54861 15.7774 8.57875C15.6259 8.60889 15.4688 8.59342 15.326 8.53429C15.1833 8.47516 15.0613 8.37503 14.9754 8.24655C14.8896 8.11808 14.8437 7.96703 14.8437 7.81251C14.8437 7.60531 14.9261 7.4066 15.0726 7.26008C15.2191 7.11357 15.4178 7.03126 15.625 7.03126Z" fill="#73877B"/>
</svg>