<svg width="70" height="70" viewBox="0 0 70 70" fill="none" xmlns="http://www.w3.org/2000/svg">
<circle cx="35" cy="35" r="34" stroke="#73877B" stroke-width="2"/>
<g clip-path="url(#clip0)">
<path d="M30.5291 25.1274C30.3565 24.9606 30.0813 24.9654 29.9145 25.1381C29.7518 25.3066 29.7518 25.5736 29.9145 25.742L39.1694 34.9978L29.9137 44.2526C29.741 44.4194 29.7362 44.6946 29.903 44.8673C30.0698 45.0399 30.3449 45.0447 30.5176 44.878C30.5212 44.8744 30.5248 44.8709 30.5283 44.8673L40.0909 35.3046C40.2606 35.1349 40.2606 34.8598 40.0909 34.69L30.5291 25.1274Z" fill="#73877B"/>
<path d="M30.2214 44.9951C29.9813 44.9955 29.7864 44.8012 29.7859 44.5612C29.7857 44.4455 29.8317 44.3344 29.9136 44.2527L39.1694 34.9978L29.9136 25.7429C29.7437 25.573 29.7437 25.2974 29.9136 25.1274C30.0836 24.9575 30.3591 24.9575 30.5291 25.1274L40.0917 34.6901C40.2614 34.8598 40.2614 35.1349 40.0917 35.3047L30.5291 44.8673C30.4476 44.9491 30.3369 44.9951 30.2214 44.9951Z" fill="#73877B"/>
</g>
<defs>
<clipPath id="clip0">
<rect width="20" height="20" fill="white" transform="translate(25 25)"/>
</clipPath>
</defs>
</svg>
